<?xml version="1.0" standalone="no"?>
<!DOCTYPE svg PUBLIC "-//W3C//DTD SVG 20010904//EN"
 "http://www.w3.org/TR/2001/REC-SVG-20010904/DTD/svg10.dtd">
<svg version="1.0" xmlns="http://www.w3.org/2000/svg"
 width="500.000000pt" height="500.000000pt" viewBox="0 0 500.000000 500.000000"
 preserveAspectRatio="xMidYMid meet">

<g transform="translate(0.000000,500.000000) scale(0.100000,-0.100000)"
fill="#000000" stroke="none">
<path d="M3026 3668 c-23 -24 -48 -62 -55 -84 l-13 -42 78 -118 c136 -207 229
-403 358 -761 82 -229 94 -258 168 -419 33 -74 64 -134 69 -134 14 0 226 155
299 219 l44 39 -36 78 c-20 44 -43 96 -52 116 l-15 37 -58 -24 c-32 -13 -74
-26 -93 -30 l-35 -6 -24 61 c-13 34 -22 62 -20 63 2 2 29 11 59 21 30 11 65
23 77 27 l22 8 -37 95 -37 96 -86 0 c-58 0 -90 4 -96 13 -10 13 -53 115 -53
127 0 4 21 3 48 -1 75 -12 142 -11 142 3 0 7 -12 48 -26 91 -24 72 -29 80 -63
93 -82 33 -151 68 -151 78 0 6 5 30 10 54 13 56 -1 111 -40 155 -45 52 -282
187 -328 187 -8 0 -33 -19 -56 -42z"/>
<path d="M2885 3385 l-56 -114 22 -43 c12 -24 32 -59 45 -79 48 -76 171 -306
189 -354 23 -59 26 -156 6 -202 -7 -18 -16 -33 -20 -32 -7 1 -228 444 -262
524 -19 46 -22 48 -34 32 -7 -10 -19 -42 -25 -70 -7 -29 -21 -66 -31 -83 l-19
-31 79 -164 c43 -90 104 -228 135 -306 31 -78 81 -197 112 -265 65 -143 134
-311 134 -326 0 -25 22 -21 70 12 28 19 59 38 70 41 11 4 20 12 20 19 0 6 -36
98 -80 204 -44 105 -80 195 -80 200 0 13 29 24 43 16 49 -28 82 -92 152 -292
18 -51 35 -96 38 -99 3 -3 21 4 39 14 18 11 63 37 100 57 l68 37 -20 40 c-12
22 -34 77 -51 122 -66 179 -157 309 -227 323 l-28 6 19 56 c44 129 5 249 -198
612 -42 74 -89 163 -105 198 -17 34 -34 62 -39 62 -5 0 -35 -52 -66 -115z"/>
<path d="M3690 3184 c0 -44 156 -475 224 -621 42 -88 76 -166 76 -172 0 -6 6
-11 13 -11 20 0 127 79 127 93 0 7 -14 48 -30 91 -17 43 -28 82 -24 87 3 5 18
9 33 9 32 0 48 -19 76 -93 14 -37 22 -46 34 -40 9 4 35 8 59 9 23 1 43 3 43 5
1 2 -1 30 -5 63 -15 114 -55 186 -105 186 l-25 0 26 28 c74 77 58 212 -35 301
l-36 34 -168 1 c-148 2 -174 5 -221 24 -63 26 -62 26 -62 6z m390 -184 c40
-40 17 -96 -58 -138 l-40 -22 -26 57 c-41 89 -42 99 -9 111 49 18 111 14 133
-8z"/>
<path d="M2608 2882 c-54 -46 -140 -107 -198 -140 -31 -17 -72 -47 -93 -65
l-37 -35 36 -98 c19 -55 71 -220 114 -369 44 -148 92 -308 108 -355 58 -165
107 -290 116 -290 14 0 206 129 206 139 0 5 -24 73 -54 150 l-54 139 60 36 59
35 14 -32 c50 -120 98 -224 109 -235 11 -11 24 -7 75 25 55 34 61 41 56 65
-10 59 -270 687 -352 853 -57 114 -112 205 -123 205 -5 0 -24 -13 -42 -28z
m61 -399 c67 -149 114 -264 109 -267 -18 -13 -121 -67 -123 -64 -8 10 -88 219
-115 302 l-33 99 44 38 c24 21 47 34 52 30 4 -4 34 -66 66 -138z"/>
<path d="M2178 2586 c-25 -17 -88 -53 -139 -81 -51 -27 -116 -72 -146 -100
l-54 -50 77 -255 c41 -140 95 -316 119 -390 24 -74 58 -195 75 -269 l32 -133
167 6 c221 9 326 17 341 26 9 6 7 24 -8 81 -34 123 -104 310 -118 316 -7 3
-54 -20 -103 -51 -50 -31 -95 -56 -100 -56 -14 0 -55 131 -44 139 5 3 51 33
101 65 51 33 92 65 92 70 0 22 -72 226 -79 226 -5 0 -47 -18 -95 -41 -48 -22
-92 -39 -98 -37 -9 3 -51 119 -45 124 1 1 49 25 105 53 62 31 102 57 99 64 -2
7 -28 83 -56 170 -29 87 -58 157 -64 156 -7 -1 -33 -15 -59 -33z"/>
<path d="M4215 2498 c-11 -7 -58 -44 -105 -82 -47 -39 -118 -95 -158 -124 -39
-30 -72 -58 -72 -62 0 -5 5 -21 11 -37 17 -45 114 -475 149 -662 l33 -174 83
7 c164 12 235 36 252 86 11 30 4 166 -18 365 -6 50 -22 200 -36 335 -13 135
-30 263 -35 285 -19 69 -55 91 -104 63z m-26 -305 c5 -10 14 -43 20 -73 17
-90 54 -478 47 -505 -7 -28 -49 -60 -69 -52 -15 5 -52 185 -88 419 l-23 148
39 40 c43 44 60 49 74 23z"/>
<path d="M1730 2313 c-36 -13 -68 -28 -73 -32 -7 -7 6 -55 93 -350 17 -57 29
-105 28 -107 -2 -1 -34 54 -72 124 -39 70 -89 157 -113 195 -50 77 -31 74
-197 27 -54 -16 -103 -33 -109 -39 -11 -11 2 -65 59 -243 43 -137 67 -268 59
-333 -9 -70 -26 -126 -47 -157 -10 -15 -15 -29 -11 -31 17 -10 167 -38 240
-44 l76 -6 -6 24 c-3 13 -13 94 -22 179 -8 85 -18 169 -21 185 -11 53 9 18
106 -188 l96 -202 139 4 c77 2 142 5 144 7 6 6 -250 914 -278 987 -12 32 -8
32 -91 0z"/>
<path d="M3755 2159 c-39 -28 -114 -78 -168 -111 -85 -52 -98 -64 -92 -82 3
-12 22 -91 41 -176 20 -85 56 -217 80 -293 24 -75 44 -140 44 -142 0 -3 34 -5
76 -5 l76 0 -6 33 c-4 17 -15 69 -25 115 l-19 83 25 10 c13 5 26 9 28 9 2 0
20 -54 42 -120 l38 -119 67 -1 c37 0 69 4 72 9 8 12 -65 371 -113 556 -64 248
-75 285 -86 285 -6 0 -42 -23 -80 -51z m4 -236 c9 -34 41 -180 41 -187 0 -7
-91 -28 -96 -23 -8 8 -44 148 -44 173 0 19 59 71 82 73 4 1 12 -16 17 -36z"/>
<path d="M1176 2115 c-27 -8 -90 -19 -140 -25 -197 -24 -250 -42 -306 -106
-97 -111 -92 -231 12 -286 40 -21 53 -23 191 -20 169 2 217 -9 217 -51 0 -32
-15 -44 -75 -57 -113 -25 -310 34 -437 132 -36 28 -37 28 -47 9 -16 -28 -13
-117 3 -150 20 -38 128 -86 241 -107 50 -9 141 -30 204 -45 184 -47 270 -35
315 45 67 117 27 284 -84 346 -43 24 -52 25 -212 25 -91 0 -169 3 -173 7 -17
16 17 47 67 58 51 13 215 9 301 -6 l37 -7 0 39 c0 47 -43 207 -56 210 -5 1
-31 -4 -58 -11z"/>
<path d="M3334 1911 c-139 -77 -186 -111 -181 -130 20 -68 127 -435 127 -437
0 -5 336 9 342 15 5 4 -2 37 -14 75 l-21 67 -87 -7 -87 -6 -6 28 c-3 16 -2 32
2 36 4 4 34 13 66 19 85 17 86 18 62 97 -11 37 -21 69 -23 71 -2 2 -33 -8 -69
-23 -81 -32 -91 -32 -98 0 -4 23 2 29 74 64 42 22 80 43 82 47 10 16 -38 143
-53 142 -8 -1 -61 -26 -116 -58z"/>
<path d="M3075 1758 c-69 -39 -125 -82 -121 -94 3 -7 8 -28 11 -48 7 -33 5
-36 -31 -51 -46 -19 -64 -14 -64 20 0 14 -6 28 -14 31 -16 6 -184 -99 -192
-119 -4 -12 30 -156 38 -162 2 -1 52 0 111 3 l109 4 -7 35 c-3 19 -9 41 -11
48 -4 9 7 17 33 24 66 19 71 16 88 -43 l16 -53 92 -6 c51 -3 97 -2 103 2 8 4
-5 62 -42 186 -75 257 -71 250 -119 223z"/>
</g>
</svg>
